<?xml version="1.0" ?>
<!-- Uploaded to: SVG Repo, www.svgrepo.com, Generator: SVG Repo Mixer Tools -->
<svg fill="#000000" width="800px" height="800px" viewBox="0 0 32 32" xmlns="http://www.w3.org/2000/svg">
<title/>
<g data-name="Layer 13" id="Layer_13">
<path d="M25.41,7.09l-9-4a1,1,0,0,0-.82,0l-9,4A1,1,0,0,0,6,8v8.56A8.69,8.69,0,0,0,8.91,23l6.43,5.71a1,1,0,0,0,1.32,0L23.09,23A8.69,8.69,0,0,0,26,16.56V8A1,1,0,0,0,25.41,7.09ZM24,16.56a6.67,6.67,0,0,1-2.24,5L16,26.66l-5.76-5.12a6.67,6.67,0,0,1-2.24-5V8.65l8-3.56,8,3.56Z"/>
<path d="M14.21,11.29a1,1,0,0,0-1.42,1.42l1.8,1.79-1.8,1.79a1,1,0,0,0,0,1.42,1,1,0,0,0,1.42,0L16,15.91l1.79,1.8a1,1,0,0,0,1.42,0,1,1,0,0,0,0-1.42l-1.8-1.79,1.8-1.79a1,1,0,0,0-1.42-1.42L16,13.09Z"/>
</g>
</svg>