<!DOCTYPE svg PUBLIC "-//W3C//DTD SVG 1.1//EN" "http://www.w3.org/Graphics/SVG/1.1/DTD/svg11.dtd">
<!-- Uploaded to: SVG Repo, www.svgrepo.com, Transformed by: SVG Repo Mixer Tools -->
<svg fill="#000043" version="1.1" id="Capa_1" xmlns="http://www.w3.org/2000/svg" xmlns:xlink="http://www.w3.org/1999/xlink" width="800px" height="800px" viewBox="-3.18 -3.18 38.17 38.17" xml:space="preserve">
<g id="SVGRepo_bgCarrier" stroke-width="0">
<rect x="-3.18" y="-3.18" width="38.17" height="38.17" rx="6.8706000000000005" fill="#7ed0ec" strokewidth="0"/>
</g>
<g id="SVGRepo_tracerCarrier" stroke-linecap="round" stroke-linejoin="round"/>
<g id="SVGRepo_iconCarrier"> <g> <g> <path d="M1.286,12.465c-0.685,0.263-1.171,0.879-1.268,1.606c-0.096,0.728,0.213,1.449,0.806,1.88l6.492,4.724L30.374,2.534 L9.985,22.621l8.875,6.458c0.564,0.41,1.293,0.533,1.964,0.33c0.67-0.204,1.204-0.713,1.444-1.368l9.494-25.986 c0.096-0.264,0.028-0.559-0.172-0.756c-0.199-0.197-0.494-0.259-0.758-0.158L1.286,12.465z"/> <path d="M5.774,22.246l0.055,0.301l1.26,6.889c0.094,0.512,0.436,0.941,0.912,1.148c0.476,0.206,1.025,0.162,1.461-0.119 c1.755-1.132,4.047-2.634,3.985-2.722L5.774,22.246z"/> </g> </g> </g>
</svg>